# xmcd
#
# Track frame offsets:
# 150
# 15304
# 27647
# 40385
# 56126
# 70253
# 88097
# 103095
# 119301
# 130866
# 144319
# 155891
# 169751
# 182024
# 195932
# 208174
# 221416
# 236685
# 250746
# 262429
# 274154
# 285688
# 298961
# 310176
# 324442
# 336365
#
# Disc length: 4660 seconds
#
#
# Revision: 0
# Processed by: cddbd v1.5.2PL0 Copyright (c) Steve Scherf et al.
# Submitted via: FreeRIP 2.945 
#
DISCID=9c12321a
DTITLE=Cooper-JF1826 - Last-Mohicans02
DYEAR=1826
DGENRE=Native American
TTITLE0=LM 0201
TTITLE1=LM 0202
TTITLE2=LM 0203
TTITLE3=LM 0204
TTITLE4=LM 0205
TTITLE5=LM 0206
TTITLE6=LM 0207
TTITLE7=LM 0208
TTITLE8=LM 0209
TTITLE9=LM 0210
TTITLE10=LM 0211
TTITLE11=LM 0212
TTITLE12=LM 0213
TTITLE13=LM 0214
TTITLE14=LM 0215
TTITLE15=LM 0216
TTITLE16=LM 0217
TTITLE17=LM 0218
TTITLE18=LM 0219
TTITLE19=LM 0220
TTITLE20=LM 0221
TTITLE21=LM 0222
TTITLE22=LM 0223
TTITLE23=LM 0224
TTITLE24=LM 0225
TTITLE25=LM 0226
EXTD=The Last of the Mohicans Tantor Media\nby James Finimore Cooper 12 CDs\nread by William Costello native country
EXTT0=
EXTT1=
EXTT2=
EXTT3=
EXTT4=
EXTT5=
EXTT6=
EXTT7=
EXTT8=
EXTT9=
EXTT10=
EXTT11=
EXTT12=
EXTT13=
EXTT14=
EXTT15=
EXTT16=
EXTT17=
EXTT18=
EXTT19=
EXTT20=
EXTT21=
EXTT22=
EXTT23=
EXTT24=
EXTT25=
PLAYORDER=
